<?xml version="1.0" encoding="utf-8"?>
<!-- Generator: Adobe Illustrator 24.1.0, SVG Export Plug-In . SVG Version: 6.00 Build 0)  -->
<svg version="1.1" id="Capa_1" xmlns="http://www.w3.org/2000/svg" xmlns:xlink="http://www.w3.org/1999/xlink" x="0px" y="0px"
	 viewBox="0 0 257.7 246.9" style="enable-background:new 0 0 257.7 246.9;" xml:space="preserve">
<style type="text/css">
	.st0{fill:#6D071A;}
</style>
<path class="st0" d="M129,19.3c-61.7,0-108.8,45.1-108.8,104.6c0,59.1,47.1,103.9,108.6,103.7c61.7,0,108.8-44.7,108.8-103.7
	C237.6,64.4,190.5,19.3,129,19.3z M194.8,135.2l-54.6,54.6c-6.3,6.3-16.4,6.3-22.4,0l-54.6-54.6c-6.3-6.1-6.3-16.2,0-22.4l43.3-43.3
	v45.9H90.3v15.4h31.5V55.2c4.5-2.3,9.9-2.3,14.4,0v75.6h31.5v-15.4h-16.2V69.5l43.3,43.3C201,119,201,129.1,194.8,135.2z"/>
</svg>
