<?xml version="1.0" encoding="utf-8"?>
<!-- Generator: Adobe Illustrator 24.1.0, SVG Export Plug-In . SVG Version: 6.00 Build 0)  -->
<svg version="1.1" id="Capa_1" xmlns="http://www.w3.org/2000/svg" xmlns:xlink="http://www.w3.org/1999/xlink" x="0px" y="0px"
	 viewBox="0 0 961.7 381.6" style="enable-background:new 0 0 961.7 381.6;" xml:space="preserve">
<style type="text/css">
	.st0{fill:#6D071A;}
	.st1{enable-background:new    ;}
</style>
<g>
	<path class="st0" d="M157.2,250.6l-53-85.9v85.9l-26.7-0.1c-14.4-0.1-26.1-11.8-26.1-26.2V52.8h75.2c42.7,0,73.4,28.9,73.4,64.3
		c0,24.7-14.8,45.3-34.2,54.2l53.2,79.5L157.2,250.6L157.2,250.6z M103.8,144.7l21.4,0.2c11.3,0.2,21.4-7.7,21.4-19.8
		s-10.3-19.8-21.4-19.8h-21.4V144.7z"/>
	<path class="st0" d="M675.6,52.9v197.7H650c-14.9,0-27-12.2-27-27v-51.5l-38.2,53.6c-7.5,10.5-23.3,10.5-30.7,0l-38.3-53.4V224
		c0,14.8-12.1,26.8-26.8,26.8h-25.8V52.9h21l84.9,114.4L654,52.9H675.6z"/>
	<path class="st0" d="M702,52.6h26c14.6,0,26.6,12,26.6,26.6v171.2h-26.1c-14.6,0-26.5-11.9-26.5-26.5V52.6z"/>
	<path class="st0" d="M909.3,250.5H780.8v-198h25.1c15.1,0,27.5,12.4,27.5,27.5v118h49.5c14.6,0,26.4,11.8,26.4,26.4V250.5z"/>
	<path class="st0" d="M332.5,52.9C272.7,52.9,227,96.7,227,154.3c0,57.3,45.7,100.7,105.3,100.5c59.8,0,105.5-43.3,105.5-100.5
		C437.7,96.7,392.1,52.9,332.5,52.9z M395.6,165.6L343.2,218c-6,6-15.7,6-21.5,0l-52.4-52.4c-6-5.9-6-15.5,0-21.5l41.6-41.6v44
		h-15.5v14.8h30.2V88.8c4.3-2.2,9.5-2.2,13.8,0v72.5h30.2v-14.8H354v-44l41.6,41.6C401.5,150,401.5,159.7,395.6,165.6z"/>
</g>
<g class="st1">
	<path d="M61.4,323.5V294H52v-5.1h24.9v5.1h-9.5v29.5H61.4z"/>
	<path d="M93.8,324.1c-2.3,0-4.6-0.5-6.5-1.5s-3.5-2.5-4.6-4.5c-1.1-2.1-1.7-4.6-1.7-7.8v-21.4h6v21.4c0,2.7,0.6,4.8,1.8,6
		c1.2,1.3,2.9,1.9,5.1,1.9s3.9-0.6,5.1-1.9s1.8-3.3,1.8-6v-21.4h6v21.4c0,3.1-0.6,5.7-1.7,7.8c-1.2,2.1-2.7,3.6-4.7,4.5
		S96.3,324.1,93.8,324.1z"/>
	<path d="M124,323.5v-34.6h6v34.6H124z"/>
	<path d="M136.3,323.5v-34.6h7.1l10.4,21.9l10.3-21.9h7.1v34.6h-6v-23.9l-9,18.9h-4.7l-9-18.9v23.9H136.3z"/>
	<path d="M175.2,323.5l11.9-34.6h6.7l11.9,34.6h-6.3l-2.6-8H184l-2.6,8H175.2z M185.7,310.5h9.4l-4.8-14.4L185.7,310.5z"/>
	<path d="M222.2,324.1c-3,0-5.8-0.8-8-2.3c-2.3-1.5-4.1-3.6-5.4-6.2c-1.3-2.7-1.9-5.7-1.9-9.3c0-3.6,0.6-6.7,1.9-9.4
		c1.3-2.7,3.1-4.9,5.6-6.4c2.4-1.5,5.3-2.3,8.6-2.3c3.9,0,7,1,9.4,2.9c2.5,1.9,4.2,4.6,4.9,8.1h-6.6c-0.5-1.6-1.4-2.9-2.7-3.8
		s-2.9-1.4-5-1.4c-3.3,0-5.8,1.1-7.5,3.2c-1.7,2.2-2.6,5.2-2.6,9s0.9,6.8,2.6,8.9c1.7,2.1,4.2,3.1,7.1,3.1c2.9,0,5.2-0.9,6.7-2.6
		c1.5-1.7,2.4-3.9,2.7-6.7h-8.2v-4.8h14.2v19h-5.5l-0.5-4.5c-1,1.6-2.3,2.9-4,3.8C226.7,323.7,224.7,324.1,222.2,324.1z"/>
	<path d="M243.9,323.5v-34.6h6v34.6H243.9z"/>
	<path d="M256.2,323.5v-34.6h6l15.2,24.3v-24.3h6v34.6h-6l-15.2-24.3v24.3H256.2z"/>
	<path d="M287.5,323.5l11.9-34.6h6.7l11.9,34.6h-6.3l-2.6-8h-12.7l-2.6,8H287.5z M298.1,310.5h9.4l-4.8-14.4L298.1,310.5z"/>
	<path d="M335.1,324.1c-3.3,0-6.1-0.8-8.4-2.3c-2.3-1.5-4.2-3.6-5.5-6.3c-1.3-2.7-1.9-5.8-1.9-9.3s0.6-6.6,1.9-9.3
		c1.2-2.7,3-4.9,5.5-6.4c2.3-1.5,5.2-2.3,8.4-2.3c3.9,0,7.1,1.1,9.5,3.1c2.5,2.1,4.1,5,4.7,8.6h-6.5c-0.4-1.8-1.2-3.3-2.5-4.4
		c-1.3-1.1-3-1.6-5.2-1.6c-3,0-5.4,1.1-7.1,3.2c-1.7,2.2-2.5,5.2-2.5,9c0,3.8,0.8,6.8,2.5,9c1.7,2.2,4.1,3.2,7.1,3.2
		c2.1,0,3.9-0.5,5.2-1.5c1.3-1,2.1-2.4,2.5-4.2h6.5c-0.6,3.6-2.1,6.4-4.7,8.3C342.2,323,338.9,324.1,335.1,324.1z"/>
	<path d="M354.6,323.5v-34.6h6v34.6H354.6z"/>
	<path d="M382.1,324.1c-3.3,0-6.1-0.8-8.5-2.3s-4.4-3.6-5.7-6.3c-1.4-2.7-2-5.8-2-9.3c0-3.6,0.7-6.6,2-9.3c1.4-2.7,3.3-4.8,5.7-6.3
		c2.4-1.5,5.3-2.3,8.5-2.3s6.1,0.8,8.5,2.3c2.4,1.5,4.4,3.6,5.7,6.3c1.3,2.7,2,5.8,2,9.3c0,3.6-0.7,6.6-2,9.3
		c-1.3,2.7-3.3,4.8-5.7,6.3S385.3,324.1,382.1,324.1z M382.1,318.4c3,0,5.6-1.1,7.4-3.2c1.8-2.2,2.7-5.2,2.7-9c0-3.8-0.9-6.8-2.7-9
		c-1.8-2.2-4.3-3.2-7.4-3.2c-3,0-5.6,1.1-7.4,3.2c-1.8,2.2-2.7,5.2-2.7,9c0,3.8,0.9,6.8,2.7,9C376.5,317.3,379,318.4,382.1,318.4z
		 M379.8,287v-4.4l10.5-6v5.2L379.8,287z"/>
	<path d="M403.5,323.5v-34.6h6l15.2,24.3v-24.3h6v34.6h-6l-15.2-24.3v24.3H403.5z"/>
	<path d="M434.5,329.2l2.6-12.3h5.8l-4.5,12.3H434.5z"/>
	<path d="M458.9,323.5v-34.6h6l15.2,24.3v-24.3h6v34.6h-6l-15.2-24.3v24.3H458.9z"/>
	<path d="M504.9,324.1c-2.3,0-4.6-0.5-6.5-1.5s-3.5-2.5-4.6-4.5c-1.1-2.1-1.7-4.6-1.7-7.8v-21.4h6v21.4c0,2.7,0.6,4.8,1.8,6
		c1.2,1.3,2.9,1.9,5.1,1.9s3.9-0.6,5.1-1.9s1.8-3.3,1.8-6v-21.4h6v21.4c0,3.1-0.6,5.7-1.7,7.8c-1.2,2.1-2.7,3.6-4.7,4.5
		C509.6,323.6,507.3,324.1,504.9,324.1z"/>
	<path d="M524,323.5v-34.6h21.2v5.1H530v9.5h13.9v5h-14v9.9h15.2v5.1L524,323.5L524,323.5z"/>
	<path d="M561.9,324.1c-2.3,0-4.5-0.4-6.3-1.3c-1.8-0.9-3.3-2.2-4.4-3.8c-1-1.6-1.6-3.6-1.6-5.9h6.3c0.1,1.6,0.6,3,1.6,4.1
		c1,1.1,2.4,1.6,4.3,1.6c1.6,0,2.8-0.4,3.8-1.2s1.4-1.8,1.4-3.2c0-1.4-0.4-2.5-1.2-3.3c-0.8-0.8-1.9-1.4-3.3-1.9
		c-1.3-0.5-2.8-1-4.4-1.6c-2.5-1-4.5-2.2-5.7-3.6c-1.3-1.4-1.9-3.3-1.9-5.8c0-2.1,0.4-3.8,1.3-5.3c0.9-1.5,2.2-2.6,3.9-3.5
		c1.6-0.8,3.6-1.2,5.7-1.2c2.1,0,4.1,0.4,5.7,1.2c1.6,0.9,2.9,1.9,3.9,3.5c0.9,1.5,1.4,3.2,1.5,5.3h-6.4c0-1.2-0.5-2.3-1.3-3.2
		c-0.8-1-2-1.4-3.6-1.4c-1.3,0-2.4,0.3-3.3,1c-0.9,0.8-1.3,1.7-1.3,3.1c0,1.2,0.3,2.1,1,2.7c0.7,0.6,1.6,1.3,2.7,1.7
		c1.2,0.4,2.5,1,4.1,1.5c1.6,0.5,3,1.3,4.4,2.1c1.3,0.8,2.4,1.8,3.3,3.1c0.8,1.3,1.2,3,1.2,5c0,1.8-0.4,3.5-1.3,5.1
		c-0.9,1.5-2.1,2.8-3.9,3.8C566.5,323.6,564.4,324.1,561.9,324.1z"/>
	<path d="M585.7,323.5V294h-9.4v-5.1h25v5.1h-9.5v29.5H585.7z"/>
	<path d="M605.6,323.5v-34.6h12c2.6,0,4.8,0.4,6.4,1.4c1.7,1,2.9,2.2,3.8,3.8c0.8,1.6,1.2,3.3,1.2,5.3c0,2.2-0.5,4-1.5,5.7
		c-1,1.7-2.6,3-4.9,3.8l6.7,14.5h-6.8l-6-13.6h-4.9v13.6h-6V323.5z M611.6,305.2h5.6c2,0,3.5-0.5,4.4-1.5c0.9-1,1.4-2.4,1.4-4.1
		c0-1.6-0.5-2.9-1.3-4c-0.9-1-2.4-1.5-4.5-1.5h-5.6V305.2z"/>
	<path d="M632.4,323.5l11.9-34.6h6.7l11.9,34.6h-6.3l-2.6-8h-12.7l-2.6,8H632.4z M643,310.5h9.4l-4.8-14.4L643,310.5z"/>
	<path d="M692.8,324.1c-3.3,0-6.1-0.8-8.4-2.3c-2.3-1.5-4.2-3.6-5.5-6.3c-1.2-2.7-1.9-5.8-1.9-9.3s0.6-6.6,1.9-9.3s3-4.9,5.5-6.4
		c2.3-1.5,5.2-2.3,8.4-2.3c3.9,0,7.1,1.1,9.5,3.1c2.5,2.1,4.1,5,4.7,8.6h-6.5c-0.4-1.8-1.2-3.3-2.5-4.4c-1.3-1.1-3-1.6-5.2-1.6
		c-3,0-5.4,1.1-7.1,3.2c-1.7,2.2-2.5,5.2-2.5,9c0,3.8,0.8,6.8,2.5,9c1.7,2.2,4.1,3.2,7.1,3.2c2.1,0,3.9-0.5,5.2-1.5
		c1.3-1,2.1-2.4,2.5-4.2h6.5c-0.6,3.6-2.1,6.4-4.7,8.3C699.9,323,696.8,324.1,692.8,324.1z"/>
	<path d="M712.3,323.5v-34.6h12c2.6,0,4.8,0.4,6.4,1.4c1.7,1,2.9,2.2,3.8,3.8c0.8,1.6,1.2,3.3,1.2,5.3c0,2.2-0.5,4-1.5,5.7
		c-1,1.7-2.6,3-4.9,3.8l6.7,14.5h-6.8l-6-13.6h-4.9v13.6h-6V323.5z M718.3,305.2h5.6c2,0,3.5-0.5,4.4-1.5s1.4-2.4,1.4-4.1
		c0-1.6-0.5-2.9-1.3-4c-0.9-1-2.4-1.5-4.5-1.5h-5.6V305.2z"/>
	<path d="M741.3,323.5v-34.6h21.2v5.1h-15.2v9.5h13.9v5h-13.9v9.9h15.2v5.1L741.3,323.5L741.3,323.5z"/>
	<path d="M766.1,323.5l11.9-34.6h6.7l11.9,34.6h-6.3l-2.6-8h-12.7l-2.6,8H766.1z M776.5,310.5h9.4l-4.8-14.4L776.5,310.5z"/>
	<path d="M813.6,324.1c-3.3,0-6.1-0.8-8.4-2.3s-4.2-3.6-5.5-6.3c-1.2-2.7-1.9-5.8-1.9-9.3s0.6-6.6,1.9-9.3c1.3-2.7,3-4.9,5.5-6.4
		c2.3-1.5,5.2-2.3,8.4-2.3c3.9,0,7.1,1.1,9.5,3.1c2.5,2.1,4.1,5,4.7,8.6h-6.5c-0.4-1.8-1.2-3.3-2.5-4.4c-1.3-1.1-3-1.6-5.2-1.6
		c-3,0-5.4,1.1-7.1,3.2c-1.7,2.2-2.5,5.2-2.5,9c0,3.8,0.8,6.8,2.5,9c1.7,2.2,4.1,3.2,7.1,3.2c2.1,0,3.9-0.5,5.2-1.5
		c1.3-1,2.1-2.4,2.5-4.2h6.5c-0.6,3.6-2.1,6.4-4.7,8.3C820.7,323,817.5,324.1,813.6,324.1z"/>
	<path d="M833.1,323.5v-34.6h6v34.6H833.1z"/>
	<path d="M860.6,324.1c-3.3,0-6.1-0.8-8.5-2.3s-4.4-3.6-5.7-6.3c-1.3-2.7-2-5.8-2-9.3c0-3.6,0.7-6.6,2-9.3c1.4-2.7,3.3-4.8,5.7-6.3
		c2.4-1.5,5.3-2.3,8.5-2.3c3.3,0,6.1,0.8,8.5,2.3c2.4,1.5,4.4,3.6,5.7,6.3s2,5.8,2,9.3c0,3.6-0.7,6.6-2,9.3s-3.3,4.8-5.7,6.3
		S863.8,324.1,860.6,324.1z M860.6,318.4c3,0,5.6-1.1,7.4-3.2c1.8-2.2,2.7-5.2,2.7-9c0-3.8-0.9-6.8-2.7-9c-1.8-2.2-4.3-3.2-7.4-3.2
		c-3,0-5.6,1.1-7.4,3.2c-1.8,2.2-2.7,5.2-2.7,9c0,3.8,0.9,6.8,2.7,9C855,317.3,857.5,318.4,860.6,318.4z M858.3,287v-4.4l10.5-6v5.2
		L858.3,287z"/>
	<path d="M882.1,323.5v-34.6h6l15.2,24.3v-24.3h6v34.6h-6l-15.2-24.3v24.3H882.1z"/>
</g>
</svg>
